<?xml version="1.0" encoding="UTF-8" standalone="no"?><svg xmlns="http://www.w3.org/2000/svg" xmlns:xlink="http://www.w3.org/1999/xlink" contentStyleType="text/css" height="354px" preserveAspectRatio="none" style="width:410px;height:354px;background:#FFFFFF;" version="1.1" viewBox="0 0 410 354" width="410px" zoomAndPan="magnify"><defs/><g><!--MD5=[e3471f280e59d1431a9a122c0f31e779]
class c--><g id="elem_c"><rect codeLine="5" fill="#F1F1F1" height="78.8281" id="c" rx="2.5" ry="2.5" style="stroke:#181818;stroke-width:0.5;" width="85" x="7" y="59.5"/><text fill="#000000" font-family="sans-serif" font-size="14" lengthAdjust="spacing" textLength="57" x="21" y="79.0332">channels</text><line style="stroke:#181818;stroke-width:0.5;" x1="8" x2="91" y1="87.1094" y2="87.1094"/><ellipse cx="18" cy="101.4141" fill="#000000" rx="3" ry="3" style="stroke:#000000;stroke-width:1.0;"/><text fill="#000000" font-family="sans-serif" font-size="14" lengthAdjust="spacing" textLength="49" x="27" y="105.6426">id «PK»</text><line style="stroke:#181818;stroke-width:1.0;" x1="8" x2="91" y1="112.7188" y2="112.7188"/><text fill="#000000" font-family="sans-serif" font-size="14" lengthAdjust="spacing" textLength="73" x="13" y="131.252">name «UK»</text></g><!--MD5=[c7ffb9edfd102118430eb07dc6c6f7f9]
class t--><g id="elem_t"><rect codeLine="11" fill="#F1F1F1" height="149.2656" id="t" rx="2.5" ry="2.5" style="stroke:#181818;stroke-width:0.5;" width="119" x="127" y="24.5"/><text fill="#000000" font-family="sans-serif" font-size="14" lengthAdjust="spacing" textLength="63" x="155" y="44.0332">time_slots</text><line style="stroke:#181818;stroke-width:0.5;" x1="128" x2="245" y1="52.1094" y2="52.1094"/><ellipse cx="138" cy="66.4141" fill="#000000" rx="3" ry="3" style="stroke:#000000;stroke-width:1.0;"/><text fill="#000000" font-family="sans-serif" font-size="14" lengthAdjust="spacing" textLength="49" x="147" y="70.6426">id «PK»</text><line style="stroke:#181818;stroke-width:1.0;" x1="128" x2="245" y1="77.7188" y2="77.7188"/><text fill="#000000" font-family="sans-serif" font-size="14" lengthAdjust="spacing" textLength="107" x="133" y="96.252">channel_id «FK»</text><text fill="#000000" font-family="sans-serif" font-size="14" lengthAdjust="spacing" textLength="107" x="133" y="113.8613">episode_id «FK»</text><text fill="#000000" font-family="sans-serif" font-size="14" lengthAdjust="spacing" textLength="48" x="133" y="131.4707">strat_at</text><text fill="#000000" font-family="sans-serif" font-size="14" lengthAdjust="spacing" textLength="44" x="133" y="149.0801">end_at</text><text fill="#000000" font-family="sans-serif" font-size="14" lengthAdjust="spacing" textLength="89" x="133" y="166.6895">num_of_views</text></g><!--MD5=[5c040679990284a825a3903b11c133d5]
class e--><g id="elem_e"><rect codeLine="21" fill="#F1F1F1" height="184.4844" id="e" rx="2.5" ry="2.5" style="stroke:#181818;stroke-width:0.5;" width="122" x="281.5" y="7"/><text fill="#000000" font-family="sans-serif" font-size="14" lengthAdjust="spacing" textLength="57" x="314" y="26.5332">episodes</text><line style="stroke:#181818;stroke-width:0.5;" x1="282.5" x2="402.5" y1="34.6094" y2="34.6094"/><ellipse cx="292.5" cy="48.9141" fill="#000000" rx="3" ry="3" style="stroke:#000000;stroke-width:1.0;"/><text fill="#000000" font-family="sans-serif" font-size="14" lengthAdjust="spacing" textLength="49" x="301.5" y="53.1426">id «PK»</text><line style="stroke:#181818;stroke-width:1.0;" x1="282.5" x2="402.5" y1="60.2188" y2="60.2188"/><text fill="#000000" font-family="sans-serif" font-size="14" lengthAdjust="spacing" textLength="110" x="287.5" y="78.752">program_id «FK»</text><text fill="#000000" font-family="sans-serif" font-size="14" lengthAdjust="spacing" textLength="46" x="287.5" y="96.3613">season</text><text fill="#000000" font-family="sans-serif" font-size="14" lengthAdjust="spacing" textLength="85" x="287.5" y="113.9707">episode_num</text><text fill="#000000" font-family="sans-serif" font-size="14" lengthAdjust="spacing" textLength="80" x="287.5" y="131.5801">episode_title</text><text fill="#000000" font-family="sans-serif" font-size="14" lengthAdjust="spacing" textLength="88" x="287.5" y="149.1895">episode_desc</text><text fill="#000000" font-family="sans-serif" font-size="14" lengthAdjust="spacing" textLength="52" x="287.5" y="166.7988">duration</text><text fill="#000000" font-family="sans-serif" font-size="14" lengthAdjust="spacing" textLength="71" x="287.5" y="184.4082">release_on</text></g><!--MD5=[1c44201a84307e68bbc50e05181386cc]
class g--><g id="elem_g"><rect codeLine="33" fill="#F1F1F1" height="78.8281" id="g" rx="2.5" ry="2.5" style="stroke:#181818;stroke-width:0.5;" width="85" x="13" y="259.5"/><text fill="#000000" font-family="sans-serif" font-size="14" lengthAdjust="spacing" textLength="44" x="33.5" y="279.0332">genres</text><line style="stroke:#181818;stroke-width:0.5;" x1="14" x2="97" y1="287.1094" y2="287.1094"/><ellipse cx="24" cy="301.4141" fill="#000000" rx="3" ry="3" style="stroke:#000000;stroke-width:1.0;"/><text fill="#000000" font-family="sans-serif" font-size="14" lengthAdjust="spacing" textLength="49" x="33" y="305.6426">id «PK»</text><line style="stroke:#181818;stroke-width:1.0;" x1="14" x2="97" y1="312.7188" y2="312.7188"/><text fill="#000000" font-family="sans-serif" font-size="14" lengthAdjust="spacing" textLength="73" x="19" y="331.252">name «UK»</text></g><!--MD5=[82898c76553fd8cb9372efa7bf37d3eb]
class pg--><g id="elem_pg"><rect codeLine="39" fill="#F1F1F1" height="96.4375" id="pg" rx="2.5" ry="2.5" style="stroke:#181818;stroke-width:0.5;" width="122" x="133.5" y="251"/><text fill="#000000" font-family="sans-serif" font-size="14" lengthAdjust="spacing" textLength="105" x="142" y="270.5332">program_genres</text><line style="stroke:#181818;stroke-width:0.5;" x1="134.5" x2="254.5" y1="278.6094" y2="278.6094"/><ellipse cx="144.5" cy="292.9141" fill="#000000" rx="3" ry="3" style="stroke:#000000;stroke-width:1.0;"/><text fill="#000000" font-family="sans-serif" font-size="14" lengthAdjust="spacing" textLength="49" x="153.5" y="297.1426">id «PK»</text><line style="stroke:#181818;stroke-width:1.0;" x1="134.5" x2="254.5" y1="304.2188" y2="304.2188"/><text fill="#000000" font-family="sans-serif" font-size="14" lengthAdjust="spacing" textLength="110" x="139.5" y="322.752">program_id «FK»</text><text fill="#000000" font-family="sans-serif" font-size="14" lengthAdjust="spacing" textLength="94" x="139.5" y="340.3613">genre_id «FK»</text></g><!--MD5=[217537f29afe639f347895754667a4fd]
class p--><g id="elem_p"><rect codeLine="46" fill="#F1F1F1" height="96.4375" id="p" rx="2.5" ry="2.5" style="stroke:#181818;stroke-width:0.5;" width="103" x="291" y="251"/><text fill="#000000" font-family="sans-serif" font-size="14" lengthAdjust="spacing" textLength="60" x="312.5" y="270.5332">programs</text><line style="stroke:#181818;stroke-width:0.5;" x1="292" x2="393" y1="278.6094" y2="278.6094"/><ellipse cx="302" cy="292.9141" fill="#000000" rx="3" ry="3" style="stroke:#000000;stroke-width:1.0;"/><text fill="#000000" font-family="sans-serif" font-size="14" lengthAdjust="spacing" textLength="49" x="311" y="297.1426">id «PK»</text><line style="stroke:#181818;stroke-width:1.0;" x1="292" x2="393" y1="304.2188" y2="304.2188"/><text fill="#000000" font-family="sans-serif" font-size="14" lengthAdjust="spacing" textLength="83" x="297" y="322.752">program_title</text><text fill="#000000" font-family="sans-serif" font-size="14" lengthAdjust="spacing" textLength="91" x="297" y="340.3613">program_desc</text></g><!--MD5=[725d2ac580865bec5960fbe07d66b5fe]
link c to t--><g id="link_c_t"><path codeLine="53" d="M100.1,99 C100.1,99 118.83,99 118.83,99 " fill="none" id="c-t" style="stroke:#181818;stroke-width:1.0;"/><line style="stroke:#181818;stroke-width:1.0;" x1="118.83" x2="126.83" y1="99" y2="93"/><line style="stroke:#181818;stroke-width:1.0;" x1="118.83" x2="126.83" y1="99" y2="105"/><line style="stroke:#181818;stroke-width:1.0;" x1="118.83" x2="126.83" y1="99" y2="99"/><line style="stroke:#181818;stroke-width:1.0;" x1="116.83" x2="116.83" y1="95" y2="103"/><line style="stroke:#181818;stroke-width:1.0;" x1="96.1" x2="96.1" y1="103" y2="95"/><line style="stroke:#181818;stroke-width:1.0;" x1="99.1" x2="99.1" y1="103" y2="95"/><line style="stroke:#181818;stroke-width:1.0;" x1="100.1" x2="92.1" y1="99" y2="99"/></g><!--MD5=[c4367ad9f45d960972e7542a6a912add]
link e to p--><g id="link_e_p"><path codeLine="54" d="M342.5,199.1 C342.5,199.1 342.5,242.74 342.5,242.74 " fill="none" id="e-p" style="stroke:#181818;stroke-width:1.0;"/><line style="stroke:#181818;stroke-width:1.0;" x1="346.5" x2="338.5" y1="246.74" y2="246.74"/><line style="stroke:#181818;stroke-width:1.0;" x1="346.5" x2="338.5" y1="243.74" y2="243.74"/><line style="stroke:#181818;stroke-width:1.0;" x1="342.5" x2="342.5" y1="242.74" y2="250.74"/><line style="stroke:#181818;stroke-width:1.0;" x1="342.5" x2="336.5" y1="199.1" y2="191.1"/><line style="stroke:#181818;stroke-width:1.0;" x1="342.5" x2="348.5" y1="199.1" y2="191.1"/><line style="stroke:#181818;stroke-width:1.0;" x1="342.5" x2="342.5" y1="199.1" y2="191.1"/><ellipse cx="342.5" cy="205.1" fill="none" rx="4" ry="4" style="stroke:#181818;stroke-width:1.0;"/></g><!--MD5=[ed83065d727af2c798b228e040d8e359]
link t to e--><g id="link_t_e"><path codeLine="55" d="M254.37,99 C254.37,99 273.24,99 273.24,99 " fill="none" id="t-e" style="stroke:#181818;stroke-width:1.0;"/><line style="stroke:#181818;stroke-width:1.0;" x1="270.24" x2="281.24" y1="99" y2="99"/><ellipse cx="270.24" cy="99" fill="none" rx="4" ry="4" style="stroke:#181818;stroke-width:1.0;"/><line style="stroke:#181818;stroke-width:1.0;" x1="277.24" x2="277.24" y1="95" y2="103"/><line style="stroke:#181818;stroke-width:1.0;" x1="254.37" x2="246.37" y1="99" y2="105"/><line style="stroke:#181818;stroke-width:1.0;" x1="254.37" x2="246.37" y1="99" y2="93"/><line style="stroke:#181818;stroke-width:1.0;" x1="254.37" x2="246.37" y1="99" y2="99"/><line style="stroke:#181818;stroke-width:1.0;" x1="256.37" x2="256.37" y1="103" y2="95"/></g><!--MD5=[1afc0968ce74af395d637b5e750a23e4]
link pg to p--><g id="link_pg_p"><path codeLine="56" d="M263.55,299 C263.55,299 282.55,299 282.55,299 " fill="none" id="pg-p" style="stroke:#181818;stroke-width:1.0;"/><line style="stroke:#181818;stroke-width:1.0;" x1="286.55" x2="286.55" y1="295" y2="303"/><line style="stroke:#181818;stroke-width:1.0;" x1="283.55" x2="283.55" y1="295" y2="303"/><line style="stroke:#181818;stroke-width:1.0;" x1="282.55" x2="290.55" y1="299" y2="299"/><line style="stroke:#181818;stroke-width:1.0;" x1="263.55" x2="255.55" y1="299" y2="305"/><line style="stroke:#181818;stroke-width:1.0;" x1="263.55" x2="255.55" y1="299" y2="293"/><line style="stroke:#181818;stroke-width:1.0;" x1="263.55" x2="255.55" y1="299" y2="299"/><line style="stroke:#181818;stroke-width:1.0;" x1="265.55" x2="265.55" y1="303" y2="295"/></g><!--MD5=[115e6077491f2ec78a16923a51baee25]
link g to pg--><g id="link_g_pg"><path codeLine="57" d="M106.34,299 C106.34,299 125.41,299 125.41,299 " fill="none" id="g-pg" style="stroke:#181818;stroke-width:1.0;"/><line style="stroke:#181818;stroke-width:1.0;" x1="125.41" x2="133.41" y1="299" y2="293"/><line style="stroke:#181818;stroke-width:1.0;" x1="125.41" x2="133.41" y1="299" y2="305"/><line style="stroke:#181818;stroke-width:1.0;" x1="125.41" x2="133.41" y1="299" y2="299"/><line style="stroke:#181818;stroke-width:1.0;" x1="123.41" x2="123.41" y1="295" y2="303"/><line style="stroke:#181818;stroke-width:1.0;" x1="102.34" x2="102.34" y1="303" y2="295"/><line style="stroke:#181818;stroke-width:1.0;" x1="105.34" x2="105.34" y1="303" y2="295"/><line style="stroke:#181818;stroke-width:1.0;" x1="106.34" x2="98.34" y1="299" y2="299"/></g><!--MD5=[014c1f5e2e339c1d8228fb6ef4161d58]
@startuml internet_tv

hide circle
skinparam linetype ortho

entity "channels" as c {
    *id <<PK>>
    - -
    name <<UK>>
}

entity "time_slots" as t {
    *id <<PK>>
    - -
    channel_id <<FK>>
    episode_id <<FK>>
    strat_at
    end_at
    num_of_views
}

entity "episodes" as e {
    *id <<PK>>
    - -
    program_id <<FK>>
    season
    episode_num
    episode_title
    episode_desc
    duration
    release_on
}

entity "genres" as g {
    *id <<PK>>
    - -
    name <<UK>>
}

entity "program_genres" as pg {
    *id <<PK>>
    - -
    program_id <<FK>>
    genre_id <<FK>>
}

entity "programs" as p {
    *id <<PK>>
    - -
    program_title
    program_desc
}

c ||-r-|{ t
e }o-d-|| p
e |o-l-|{ t
p ||-l-|{ pg
pg }|-l-|| g

@enduml

PlantUML version 1.2022.7(Tue Aug 23 02:01:30 JST 2022)
(GPL source distribution)
Java Runtime: Java(TM) SE Runtime Environment
JVM: Java HotSpot(TM) 64-Bit Server VM
Default Encoding: UTF-8
Language: ja
Country: JP
--></g></svg>